# xmcd
#
# Track frame offsets:
#	150
#	9627
#	35015
#	52254
#	66182
#	86131
#	102265
#	120747
#	136785
#	150218
#	162070
#	178285
#	191381
#	202870
#	221469
#	232429
#	248895
#	267214
#
# Disc length: 3800 seconds
# Revision: 1
# Processed by: cddbd v1.5.2PL0 Copyright (c) Steve Scherf et al.
# Submitted via: dBpowerAMP V12.0
#
DISCID=fd0ed612
DTITLE=Various Artist - Smooth Sounds - Sunday Morning
DYEAR=2007
DGENRE=Pop
TTITLE0=Al Jarreau - Ain't No Sunshine
TTITLE1=Isaac Hayes - Lay Lady Lay
TTITLE2=Atlantic Starr - Always
TTITLE3=Jimmy Ruffin - What Becomes Of The Broken Hearted
TTITLE4=Astrud Gilberto and Chet Baker - Far Away
TTITLE5=Harold Melvin and The Blue Notes - If You Don't Know Me By Now
TTITLE6=Brook Benton - Rainy Night In Georgia
TTITLE7=Joe South - Games People Play
TTITLE8=Percy Sledge - Take Time To Know Her
TTITLE9=Wilson Pickett - If You Need Me
TTITLE10=Randy Van Warmer - Just When I Needed You Most
TTITLE11=Nat King Cole - Nature Boy
TTITLE12=The New Seekers - I'd Like To Teach The World To Sing (In Perfect Harmony)
TTITLE13=Barbara Mason - Yes, I'm Ready
TTITLE14=Phil Phillips - Sea Of Love
TTITLE15=David Soul - Don't Give Up On Us
TTITLE16=Phillis Nelson - Move Closer
TTITLE17=Helen Reddy - Angie Baby
EXTD=
EXTT0=
EXTT1=
EXTT2=
EXTT3=
EXTT4=
EXTT5=
EXTT6=
EXTT7=
EXTT8=
EXTT9=
EXTT10=
EXTT11=
EXTT12=
EXTT13=
EXTT14=
EXTT15=
EXTT16=
EXTT17=
PLAYORDER=
